<svg width="192" height="192" viewBox="0 0 192 192" fill="none" xmlns="http://www.w3.org/2000/svg">
  <rect width="192" height="192" rx="42" fill="#0757C8"/>
  <path d="M46 59C46 52.3726 51.3726 47 58 47H107C127.435 47 142 59.3799 142 77.5C142 88.0809 136.858 96.5409 128.401 101.445C139.636 105.675 146 115.141 146 127C146 145.399 130.771 158 109 158H58C51.3726 158 46 152.627 46 146V59Z" fill="white"/>
  <path d="M75 72H104C112.547 72 118 76.37 118 83.5C118 90.63 112.547 95 104 95H75V72Z" fill="#0757C8"/>
  <path d="M75 118H108C116.547 118 122 122.37 122 129.5C122 136.63 116.547 141 108 141H75V118Z" fill="#0757C8"/>
</svg>
