<svg width="512" height="512" viewBox="0 0 512 512" fill="none" xmlns="http://www.w3.org/2000/svg">
  <rect width="512" height="512" rx="112" fill="#0757C8"/>
  <path d="M123 157C123 139.327 137.327 125 155 125H286C340.493 125 379 158.013 379 206.5C379 234.531 365.481 257.118 343.07 270.284C372.785 281.612 389 306.84 389 338C389 387.052 348.55 421 290 421H155C137.327 421 123 406.673 123 389V157Z" fill="white"/>
  <path d="M200 191H277C299.526 191 314 202.672 314 221.5C314 240.328 299.526 252 277 252H200V191Z" fill="#0757C8"/>
  <path d="M200 313H288C310.526 313 325 324.672 325 343.5C325 362.328 310.526 374 288 374H200V313Z" fill="#0757C8"/>
</svg>
